<?xml version="1.0" standalone="no"?>
<!DOCTYPE svg PUBLIC "-//W3C//DTD SVG 20010904//EN"
 "http://www.w3.org/TR/2001/REC-SVG-20010904/DTD/svg10.dtd">
<svg version="1.0" xmlns="http://www.w3.org/2000/svg"
 width="200.000000pt" height="200.000000pt"
 preserveAspectRatio="xMidYMid meet">
<metadata>
Created by potrace 1.13, written by Peter Selinger 2001-2015
</metadata>
<g transform="translate(0.000000,250.000000) scale(0.040000,-0.040000)"
fill="#000000" stroke="none">
<path d="M1625 5824 c-182 -17 -359 -61 -540 -133 -70 -28 -216 -108 -300
-163 -378 -253 -658 -667 -744 -1099 -65 -332 -56 -542 41 -894 81 -295 182
-503 384 -789 18 -26 176 -228 211 -271 182 -222 628 -660 943 -927 297 -251
584 -472 1016 -783 206 -148 476 -325 495 -325 15 0 108 60 361 233 106 72
476 339 549 396 25 20 58 45 73 56 55 39 406 322 527 424 310 262 743 687 944
929 36 43 182 230 198 252 227 330 313 504 395 805 96 347 106 565 41 894
-101 512 -459 971 -945 1215 -258 129 -489 181 -789 179 -212 -2 -361 -25
-545 -84 -261 -85 -574 -285 -733 -468 -74 -84 -67 -85 -171 18 -119 117 -136
132 -231 201 -294 212 -621 322 -985 333 -85 3 -173 3 -195 1z"/>
</g>
</svg>
